<?xml version="1.0" standalone="no"?>
<!DOCTYPE svg PUBLIC "-//W3C//DTD SVG 20010904//EN"
 "http://www.w3.org/TR/2001/REC-SVG-20010904/DTD/svg10.dtd">
<svg version="1.0" xmlns="http://www.w3.org/2000/svg"
 width="427.000000pt" height="426.000000pt" viewBox="0 0 427.000000 426.000000"
 preserveAspectRatio="xMidYMid meet">

<g transform="translate(0.000000,426.000000) scale(0.100000,-0.100000)"
fill="#000000" stroke="none">
<path d="M65 2217 l0 -183 28 -2 c25 -2 27 0 17 17 -5 11 -10 51 -10 90 l0 71
111 0 111 0 -4 -89 -3 -90 28 1 c27 1 35 12 17 23 -13 8 -13 300 0 326 9 17 7
19 -17 19 l-28 0 3 -90 3 -91 -108 3 -108 3 -3 73 c-2 46 2 79 9 88 9 11 6 14
-17 14 l-29 0 0 -183z"/>
<path d="M2580 2237 c0 -93 -4 -176 -9 -186 -8 -15 -6 -18 19 -18 25 0 27 3
19 18 -5 10 -9 78 -9 151 l1 133 144 -150 144 -150 1 171 c0 118 4 174 12 182
9 9 7 12 -12 12 l-25 0 3 -145 c2 -80 1 -145 -2 -145 -2 0 -31 28 -63 63 -32
34 -95 100 -140 147 l-83 85 0 -168z"/>
<path d="M1627 2353 c-75 -3 -87 -6 -77 -18 8 -10 10 -59 8 -160 l-3 -146 88
3 c72 2 90 5 98 19 14 28 11 31 -13 15 -14 -10 -44 -16 -81 -16 l-58 0 3 68 3
67 43 3 c24 2 50 -2 58 -9 11 -9 14 -8 14 7 0 17 -7 19 -60 16 l-60 -4 0 72 0
72 70 -4 c52 -3 70 0 70 9 0 7 -3 12 -7 11 -5 -1 -48 -4 -96 -5z"/>
<path d="M1879 2349 c-31 -11 -54 -58 -44 -88 3 -12 38 -46 76 -77 75 -60 86
-87 49 -124 -31 -31 -76 -26 -111 11 -29 31 -29 31 -29 7 0 -31 34 -48 95 -48
36 0 47 5 69 31 44 52 31 82 -68 159 -44 33 -56 48 -56 70 0 50 61 73 105 39
25 -20 25 -20 25 -1 0 30 -57 41 -111 21z"/>
<path d="M2060 2345 c0 -6 27 -10 62 -10 l63 0 2 -134 c1 -73 -2 -141 -7 -151
-7 -14 -4 -17 18 -17 l27 0 -3 154 -3 153 53 0 c30 0 59 -5 66 -12 9 -9 12 -8
12 8 0 18 -8 19 -145 19 -90 0 -145 -4 -145 -10z"/>
<path d="M4083 2350 c-32 -13 -56 -55 -49 -85 4 -14 36 -48 76 -80 58 -46 70
-61 70 -85 0 -33 -31 -60 -70 -60 -32 0 -70 26 -70 48 -1 15 -2 14 -12 -2 -17
-30 22 -56 82 -56 42 0 52 4 75 32 20 24 25 38 21 60 -7 34 -12 40 -88 97 -45
34 -58 49 -58 70 0 15 5 32 12 39 17 17 84 15 102 -4 15 -14 16 -14 16 4 0 29
-59 41 -107 22z"/>
<path d="M545 2200 c-38 -83 -74 -150 -80 -150 -18 0 19 -20 39 -20 12 0 16 5
12 15 -3 9 2 33 10 55 l16 40 70 0 69 0 15 -37 c9 -20 13 -44 11 -54 -4 -15 1
-18 29 -17 19 1 33 4 32 7 -2 3 -16 30 -31 59 -15 29 -46 94 -68 145 -22 51
-44 95 -48 99 -3 4 -38 -60 -76 -142z m120 -19 c6 -20 3 -21 -54 -21 l-60 0
20 48 c12 26 25 58 31 72 10 24 11 23 33 -27 13 -28 26 -61 30 -72z"/>
<path d="M865 2190 c0 -153 1 -160 20 -160 19 0 20 6 17 155 l-3 155 38 0 c50
0 84 -19 95 -52 14 -42 -9 -80 -57 -94 -22 -7 -35 -13 -28 -13 7 -1 30 -26 52
-57 44 -61 63 -78 100 -87 22 -5 21 -3 -11 31 -19 20 -47 54 -63 74 -25 35
-26 38 -9 44 30 11 54 46 53 79 0 60 -40 85 -136 85 l-68 0 0 -160z"/>
<path d="M1152 2338 c9 -7 44 -76 78 -153 61 -137 80 -172 80 -147 0 18 120
274 138 295 14 16 13 17 -15 17 -25 0 -31 -4 -31 -22 0 -26 -84 -229 -96 -231
-12 -3 -98 214 -93 234 4 16 -1 19 -36 19 -34 0 -38 -2 -25 -12z"/>
<path d="M3028 2204 c2 -89 -1 -150 -7 -158 -16 -20 157 -22 184 -2 11 8 17
18 12 22 -4 4 -13 2 -19 -4 -7 -7 -40 -12 -75 -12 l-63 0 0 65 c0 61 1 65 26
71 14 4 41 4 60 1 23 -4 34 -2 34 6 0 8 -19 11 -60 9 l-61 -4 3 69 3 68 58 3
c35 2 64 -2 73 -9 11 -9 14 -8 14 5 0 14 -14 16 -92 16 l-93 0 3 -146z"/>
<path d="M3312 2338 c8 -7 36 -43 61 -79 l47 -66 -37 -49 c-20 -27 -50 -64
-66 -81 l-31 -33 27 0 c21 0 30 7 41 33 8 17 27 48 44 67 25 30 32 33 46 21
21 -17 57 -77 60 -98 2 -12 13 -18 34 -20 36 -3 39 2 17 23 -8 9 -36 44 -61
79 l-45 64 46 66 c26 36 54 69 63 75 13 7 9 9 -20 10 -30 0 -38 -4 -38 -18 0
-20 -50 -102 -62 -102 -16 0 -69 85 -65 102 4 15 -2 18 -36 18 -34 0 -38 -2
-25 -12z"/>
<path d="M3658 2338 c8 -8 12 -51 12 -126 l0 -114 34 -34 c30 -30 40 -34 85
-34 59 0 104 20 123 53 8 13 15 72 18 145 l5 122 -25 -1 c-14 0 -19 -3 -12 -6
15 -6 17 -196 1 -241 -14 -40 -49 -62 -99 -62 -33 0 -48 6 -71 30 l-30 30 3
125 3 125 -29 0 c-23 0 -27 -3 -18 -12z"/>
<path d="M380 1512 c0 -61 0 -62 28 -62 40 0 72 26 72 59 0 31 -12 45 -50 56
-21 5 -20 3 8 -14 54 -35 37 -91 -28 -91 -19 0 -21 5 -19 50 2 27 0 53 -4 56
-4 4 -7 -20 -7 -54z"/>
<path d="M678 1559 c-28 -16 -21 -39 18 -55 43 -18 39 -40 -7 -37 -28 1 -30 0
-16 -9 27 -15 67 -2 67 22 0 13 -12 25 -35 34 -19 8 -35 19 -35 25 0 13 37 24
51 15 8 -4 9 -3 5 4 -9 15 -25 15 -48 1z"/>
<path d="M800 1514 c0 -33 4 -54 11 -54 7 0 10 17 7 45 -2 36 0 46 17 53 18 8
17 9 -7 9 -27 0 -28 -1 -28 -53z"/>
<path d="M891 1508 c1 -35 4 -53 6 -40 5 26 29 29 56 5 11 -10 17 -12 13 -5
-5 8 -3 25 4 38 11 19 11 26 0 39 -7 8 -17 15 -23 15 -6 0 -3 -6 7 -13 25 -19
10 -47 -25 -47 -24 0 -29 4 -29 25 0 13 8 29 18 34 15 9 15 10 -5 11 -22 0
-23 -4 -22 -62z"/>
<path d="M1075 1538 l-18 -31 -24 29 c-29 37 -29 31 2 -30 18 -36 25 -43 25
-27 0 13 9 36 21 53 12 16 19 31 17 33 -2 3 -12 -10 -23 -27z"/>
<path d="M1307 1563 c-11 -10 -8 -33 3 -33 6 0 10 7 10 16 0 12 7 15 25 12 14
-3 25 -1 25 3 0 10 -54 12 -63 2z"/>
<path d="M1437 1515 c-15 -30 -22 -55 -17 -55 6 0 10 5 10 10 0 14 64 12 79
-2 7 -7 3 10 -9 37 -12 28 -25 53 -29 57 -4 5 -19 -17 -34 -47z m53 -17 c0 -5
-11 -8 -24 -8 -24 0 -24 2 -14 31 l11 32 13 -24 c7 -13 13 -27 14 -31z"/>
<path d="M1560 1510 l0 -60 33 1 c30 2 30 2 5 6 -26 4 -28 8 -28 54 0 53 6 57
54 39 20 -7 26 -17 26 -38 0 -15 -5 -33 -12 -40 -7 -7 -8 -12 -2 -12 19 0 35
49 23 71 -11 21 -48 39 -80 39 -17 0 -19 -7 -19 -60z"/>
<path d="M1940 1557 c-37 -18 -40 -70 -6 -92 38 -25 76 -13 75 23 -2 24 -2 25
-6 4 -6 -29 -27 -38 -59 -24 -49 23 -10 103 42 86 16 -5 16 -4 4 5 -19 13 -20
13 -50 -2z"/>
<path d="M2260 1508 l0 -58 43 2 42 1 -37 4 -37 4 2 47 c2 43 4 47 32 53 28 7
27 7 -7 6 l-38 -1 0 -58z"/>
<path d="M2557 1563 c-4 -3 -7 -29 -7 -57 1 -45 2 -49 14 -33 7 9 22 17 32 17
10 0 25 4 32 9 18 11 12 53 -8 58 -12 4 -12 3 -2 -5 8 -5 12 -18 10 -28 -5
-26 -64 -27 -62 -1 3 33 4 36 22 40 14 4 13 5 -4 6 -11 0 -24 -2 -27 -6z"/>
<path d="M2763 1560 c-27 -11 -39 -50 -24 -79 14 -25 53 -37 78 -23 14 9 11
10 -16 9 -29 -2 -37 3 -50 26 -16 27 -15 29 14 53 32 26 32 28 -2 14z"/>
<path d="M2881 1551 c-26 -26 -27 -55 -1 -81 50 -50 124 7 90 71 -6 10 -18 19
-26 19 -12 0 -11 -5 6 -18 28 -22 22 -67 -10 -77 -55 -17 -93 42 -50 77 13 10
20 21 17 24 -3 3 -15 -4 -26 -15z"/>
<path d="M3320 1510 l0 -60 38 2 c36 1 36 1 5 5 -32 4 -33 6 -33 53 0 47 1 49
33 53 31 4 31 4 -5 5 l-38 2 0 -60z"/>
<path d="M3490 1560 c8 -5 20 -10 25 -10 6 0 3 5 -5 10 -8 5 -19 10 -25 10 -5
0 -3 -5 5 -10z"/>
<path d="M3573 1563 c13 -3 17 -16 18 -56 1 -59 5 -53 12 16 4 46 4 47 -22 46
-17 -1 -20 -3 -8 -6z"/>
<path d="M3801 1556 c35 -20 43 -44 24 -72 -18 -28 -47 -31 -69 -8 -21 20 -20
43 1 66 9 10 11 18 5 18 -14 0 -32 -33 -32 -59 0 -22 35 -51 62 -51 23 0 58
35 58 58 0 26 -21 49 -50 56 l-25 7 26 -15z"/>
<path d="M4048 1559 c-28 -16 -21 -39 18 -55 43 -18 39 -40 -7 -38 -32 2 -32
1 -11 -9 17 -8 29 -8 40 0 31 19 25 40 -12 54 -42 15 -44 22 -14 43 25 18 13
21 -14 5z"/>
<path d="M173 1505 c0 -33 2 -45 4 -27 2 18 2 45 0 60 -2 15 -4 0 -4 -33z"/>
<path d="M232 1503 l1 -58 6 48 6 49 23 -32 c13 -17 26 -29 29 -26 6 6 -49 76
-59 76 -5 0 -7 -26 -6 -57z"/>
<path d="M309 1515 c-5 -50 -4 -63 7 -53 3 3 4 28 2 54 l-3 49 -6 -50z"/>
<path d="M523 1520 c6 -47 22 -70 48 -70 30 0 49 28 48 73 l-2 42 -6 -43 c-8
-49 -21 -65 -47 -60 -15 2 -20 14 -22 51 -2 26 -8 47 -14 47 -7 0 -9 -15 -5
-40z"/>
<path d="M1192 1508 l3 -53 40 -1 c32 -1 34 -1 8 3 -32 4 -33 6 -33 54 0 28
-5 49 -11 49 -6 0 -9 -21 -7 -52z"/>
<path d="M1713 1510 c0 -30 2 -43 4 -27 2 15 2 39 0 55 -2 15 -4 2 -4 -28z"/>
<path d="M1772 1508 l1 -53 6 44 6 43 33 -41 c18 -22 36 -41 40 -41 4 0 8 23
9 50 1 29 -2 50 -8 50 -6 0 -10 -15 -9 -32 3 -53 2 -54 -32 -10 -18 23 -36 42
-40 42 -4 0 -7 -24 -6 -52z"/>
<path d="M2112 1510 c0 -45 1 -50 8 -27 5 15 5 39 0 55 -7 22 -8 17 -8 -28z"/>
<path d="M2197 1534 c-2 -15 -1 -38 3 -53 7 -21 8 -16 9 27 1 56 -4 67 -12 26z"/>
<path d="M2380 1508 c0 -50 10 -61 15 -16 1 13 3 28 4 33 0 6 10 -5 21 -22 11
-18 22 -33 25 -33 2 0 12 15 22 33 l18 32 6 -40 c6 -38 6 -37 7 15 1 50 0 53
-13 35 -45 -64 -40 -62 -66 -22 -13 20 -27 37 -31 37 -5 0 -8 -23 -8 -52z"/>
<path d="M2808 1553 c7 -3 16 -2 19 1 4 3 -2 6 -13 5 -11 0 -14 -3 -6 -6z"/>
<path d="M3022 1508 c1 -53 2 -53 5 -9 l4 44 44 -49 44 -49 -1 60 c-1 41 -3
48 -5 23 -2 -21 -8 -38 -13 -38 -5 0 -21 16 -36 35 -14 19 -30 35 -35 35 -5 0
-8 -24 -7 -52z"/>
<path d="M3172 1503 l1 -58 6 49 6 48 34 -46 c19 -25 36 -46 38 -46 2 0 2 26
1 58 -1 56 -1 56 -7 14 l-6 -44 -30 41 c-16 22 -33 41 -37 41 -5 0 -7 -26 -6
-57z"/>
<path d="M3442 1548 c-20 -20 -14 -65 10 -82 27 -19 54 -21 64 -4 4 7 3 8 -5
4 -7 -5 -23 -5 -36 -2 -33 8 -44 50 -20 76 19 21 7 28 -13 8z"/>
<path d="M3683 1510 c0 -30 2 -43 4 -27 2 15 2 39 0 55 -2 15 -4 2 -4 -28z"/>
<path d="M3892 1508 l1 -53 6 43 6 44 30 -41 c31 -42 44 -50 46 -28 0 6 2 21
3 33 1 11 -1 29 -5 40 -6 13 -7 6 -5 -19 2 -21 1 -39 -3 -41 -3 -2 -19 13 -35
35 -17 21 -33 39 -38 39 -4 0 -7 -24 -6 -52z"/>
<path d="M1302 1488 c3 -31 5 -33 43 -34 34 -1 35 -1 7 3 -37 5 -51 26 -32 48
10 12 9 15 -4 15 -13 0 -17 -7 -14 -32z"/>
<path d="M1348 1513 c7 -3 16 -2 19 1 4 3 -2 6 -13 5 -11 0 -14 -3 -6 -6z"/>
<path d="M2298 1513 c7 -3 16 -2 19 1 4 3 -2 6 -13 5 -11 0 -14 -3 -6 -6z"/>
</g>
</svg>
